<?xml version="1.0" standalone="no"?>
<!DOCTYPE svg PUBLIC "-//W3C//DTD SVG 20010904//EN"
 "http://www.w3.org/TR/2001/REC-SVG-20010904/DTD/svg10.dtd">
<svg version="1.0" xmlns="http://www.w3.org/2000/svg"
 width="700.000000pt" height="700.000000pt" viewBox="0 0 700.000000 700.000000"
 preserveAspectRatio="xMidYMid meet">
<metadata>
Created by potrace 1.14, written by Peter Selinger 2001-2017
</metadata>
<g transform="translate(0.000000,700.000000) scale(0.100000,-0.100000)"
fill="#000000" stroke="none">
<path d="M3280 6994 c-19 -2 -84 -9 -145 -14 -578 -56 -1180 -283 -1660 -625
-237 -169 -531 -446 -709 -670 -416 -521 -673 -1147 -748 -1820 -17 -155 -17
-575 0 -730 52 -469 198 -931 418 -1327 290 -523 731 -983 1239 -1294 439
-269 920 -432 1460 -496 145 -17 576 -17 730 0 822 91 1556 447 2131 1034 203
206 348 390 487 618 274 449 433 916 499 1465 16 136 16 592 0 730 -86 725
-352 1347 -803 1885 -122 145 -351 370 -494 484 -510 407 -1117 661 -1775 742
-117 15 -553 27 -630 18z m1607 -2135 c198 -27 364 -107 493 -238 115 -115
172 -226 195 -379 l7 -43 -157 3 -157 3 -18 56 c-70 227 -367 365 -654 304
-157 -33 -262 -109 -323 -233 -37 -75 -38 -78 -38 -191 0 -105 3 -121 27 -174
36 -77 111 -148 203 -192 73 -36 148 -56 395 -110 247 -53 435 -143 559 -266
76 -76 122 -147 159 -251 24 -67 27 -86 27 -228 0 -135 -3 -165 -23 -230 -68
-216 -193 -360 -397 -460 -154 -76 -244 -94 -455 -94 -195 0 -281 15 -427 75
-263 110 -452 353 -465 599 l-3 45 152 3 152 3 7 -28 c3 -16 12 -48 20 -72 47
-149 192 -268 384 -317 85 -22 253 -22 344 0 151 36 286 137 345 258 84 173
54 369 -77 490 -98 90 -213 136 -483 192 -179 37 -289 71 -384 119 -236 118
-360 290 -385 532 -36 349 143 652 458 772 152 58 342 77 519 52z m-2482 -57
c112 -30 286 -120 372 -192 222 -184 372 -481 424 -840 19 -126 16 -433 -5
-555 -52 -309 -156 -538 -330 -721 -138 -148 -285 -235 -481 -286 -75 -20
-111 -22 -537 -25 l-458 -4 0 1326 0 1326 468 -3 c443 -4 471 -5 547 -26z"/>
<path d="M1720 3511 l0 -1031 258 0 c225 0 269 3 336 20 230 58 409 247 499
525 54 164 62 231 62 485 -1 206 -4 248 -23 339 -75 344 -252 574 -505 657
-79 26 -91 27 -354 32 l-273 4 0 -1031z"/>
</g>
</svg>
