<?xml version="1.0" encoding="UTF-8"?>
<svg id="Layer_2" data-name="Layer 2" xmlns="http://www.w3.org/2000/svg" viewBox="0 0 126.54 126.54">
  <g id="Layer_1-2" data-name="Layer 1">
    <g>
      <circle cx="63.27" cy="63.27" r="63.27" style="fill: #222; stroke-width: 0px;"/>
      <g>
        <path d="m25.08,39.16h13.63c11.58,0,19.46,9.73,19.46,23.98s-7.88,23.98-19.46,23.98h-13.63v-47.95Zm13.63,42.61c8.15,0,13.43-7.26,13.43-18.63s-5.28-18.63-13.43-18.63h-7.67v37.27h7.67Z" style="fill: #fff; stroke-width: 0px;"/>
        <path d="m74.88,74.92c.48,4.59,4.8,7.81,10.55,7.81s10.14-3.49,10.14-8.63c0-4.38-3.01-7.06-9.11-8.36l-2.81-.55c-8.63-1.71-13.08-6.1-13.08-13.08,0-8.08,6.03-13.63,14.8-13.63s15.07,5.21,15.48,12.19h-5.62c-.55-4.04-4.59-6.92-9.73-6.92-5.48,0-9.11,3.22-9.11,8.01,0,4.11,2.74,6.71,8.08,7.81l2.81.55c9.39,1.92,14.18,6.44,14.18,13.7,0,8.43-6.51,14.25-15.89,14.25s-16.03-5.55-16.3-13.15h5.62Z" style="fill: #fff; stroke-width: 0px;"/>
      </g>
    </g>
  </g>
</svg>